<svg id="Bold" enable-background="new 0 0 24 24" height="512" viewBox="0 0 24 24" width="512" xmlns="http://www.w3.org/2000/svg"><g><path d="m15.511 18.999h-7.022c-.365 0-.678-.264-.739-.624l-.739-4.333c-.048-.277.064-.558.29-.727.225-.168.526-.195.779-.073l1.761.863 1.503-2.719c.264-.479 1.049-.479 1.312 0l1.503 2.719 1.761-.863c.253-.122.555-.095.779.073.226.169.338.449.29.727l-.739 4.333c-.062.36-.374.624-.739.624z"/></g><g><path d="m21 3h-1v-2c0-.552-.448-1-1-1h-1c-.552 0-1 .448-1 1v2h-10v-2c0-.552-.448-1-1-1h-1c-.552 0-1 .448-1 1v2h-1c-1.654 0-3 1.346-3 3v15c0 1.654 1.346 3 3 3h18c1.654 0 3-1.346 3-3v-15c0-1.654-1.346-3-3-3zm0 19h-18c-.552 0-1-.448-1-1v-11.96h20v11.96c0 .552-.448 1-1 1z"/></g></svg>