<svg width="32" height="32" xmlns="http://www.w3.org/2000/svg">
 <!-- Created with Method Draw - http://github.com/duopixel/Method-Draw/ -->
 <g>
  <title>background</title>
  <rect fill="none" id="canvas_background" height="34" width="34" y="-1" x="-1"/>
  <g display="none" overflow="visible" y="0" x="0" height="100%" width="100%" id="canvasGrid">
   <rect fill="url(#gridpattern)" stroke-width="0" y="0" x="0" height="100%" width="100%"/>
  </g>
 </g>
 <g>
  <title>Layer 1</title>
  <path stroke="#000" id="svg_5" d="m15.906807,1.947281c-7.813123,0 -14.146745,6.333623 -14.146745,14.146745c0,7.813123 6.333623,14.146745 14.146745,14.146745c7.813123,0 14.146745,-6.333623 14.146745,-14.146745c0,-7.813123 -6.333623,-14.146745 -14.146745,-14.146745zm-7.54253,5.853759c0.118749,0.053535 0.248206,0.101229 0.272539,0.13335c0.037961,0.049641 0.087602,0.200511 0.025307,0.237499c-0.063268,0.037961 -0.16255,0.025307 -0.176177,-0.087602c-0.012654,-0.111936 -0.025307,-0.124589 -0.175204,-0.175204c-0.021414,-0.006813 -0.034067,-0.009734 -0.049641,-0.0146c0.034067,-0.031147 0.069108,-0.062295 0.103176,-0.093442zm-0.504198,0.480837c0.030174,0.084682 0.109989,0.121669 0,0.16547c-0.058401,0.023361 -0.118749,0.027254 -0.169364,0.02044c0.056455,-0.061321 0.109989,-0.126536 0.169364,-0.185911zm8.046728,19.037856c-6.191513,0 -11.22668,-5.035167 -11.22668,-11.225706c0,-0.082735 0.010707,-0.163524 0.012654,-0.247232c0.003893,-0.00292 0.007787,-0.00584 0.01168,-0.00876c0.125563,-0.099282 0.27546,-0.349435 0.325101,-0.43801c0.050614,-0.086629 0.176177,-0.149897 0.112909,-0.249179c-0.057428,-0.093442 -0.28422,-0.223872 -0.396156,-0.254046c0.009734,-0.096362 0.031147,-0.189804 0.043801,-0.286166c0.061321,0.074948 0.13335,0.16547 0.202458,0.188831c0.111936,0.036987 0.487651,0.050614 0.550919,0.050614c0.061321,0 0.325101,0.013627 0.375715,-0.062295c0.049641,-0.074948 0.087602,-0.074948 0.149897,-0.074948c0.062295,0 0.175204,0.224845 0.263779,0.250152c0.086629,0.025307 0.250152,0.012654 0.237499,0.176177c-0.01168,0.161577 0.074948,0.300767 0.16255,0.312447c0.087602,0.012654 0.288113,-0.188831 0.288113,-0.188831s0,0.31342 -0.01168,0.42633c-0.012654,0.110962 0.137243,0.525612 0.137243,0.525612s0.187858,0.386422 0.237499,0.474997c0.050614,0.087602 0.262806,0.350408 0.262806,0.463317c0,0.113883 0.025307,0.289087 0.101229,0.289087s0.15087,-0.200511 0.237499,-0.326074c0.088575,-0.124589 0.113883,-0.30174 0.15087,-0.42633c0.037961,-0.125563 0.037961,-0.350408 0.037961,-0.43801c0,-0.088575 0.073975,-0.163524 0.250152,-0.238472c0.176177,-0.074948 0.300767,-0.288113 0.450663,-0.401022c0.15087,-0.112909 0.138216,-0.300767 0.439957,-0.300767c0.299793,0 0.274486,0 0.350408,-0.075922c0.074948,-0.074948 0.149897,-0.124589 0.186884,0.012654c0.037961,0.138216 0.250152,0.337754 0.288113,0.388369c0.037961,0.050614 0.112909,0.187858 0.101229,0.338728c-0.012654,0.148923 0.01168,0.325101 0.074948,0.325101c0.062295,0 0.187858,-0.213165 0.187858,-0.213165s0.27546,-0.186884 0.262806,0.013627c-0.013627,0.199538 0.024334,0.413676 0.024334,0.537292c0,0.126536 0.225818,0.42633 0.225818,0.352355c0,-0.076895 0.100256,-0.288113 0.100256,-0.401996c0,-0.110962 0.062295,-0.061321 0.224845,0.049641c0.16255,0.112909 0.27546,0.339701 0.27546,0.339701s0.163524,0.149897 0.187858,0.213165c0.025307,0.062295 0.200511,-0.024334 0.237499,-0.101229c0.037961,-0.073975 0.063268,-0.111936 0.16255,-0.137243c0.101229,-0.025307 0.224845,-0.025307 0.263779,-0.163524c0.037961,-0.138216 0.149897,-0.299793 0,-0.488624c-0.149897,-0.187858 -0.225818,-0.312447 -0.337754,-0.401022c-0.113883,-0.087602 -0.200511,-0.31342 -0.200511,-0.31342s0.237499,-0.212191 0.312447,-0.288113c0.076895,-0.074948 0.187858,-0.024334 0.201485,0.062295c0.012654,0.088575 -0.111936,0.163524 -0.137243,0.351381c-0.025307,0.186884 0.149897,0.250152 0.200511,0.186884c0.049641,-0.063268 0.175204,-0.213165 0.175204,-0.250152c0,-0.037961 -0.086629,-0.025307 -0.099282,-0.16255c-0.012654,-0.138216 0.161577,-0.238472 0.223872,-0.201485c0.064241,0.037961 0.46429,-0.049641 0.652148,-0.149897s0.299793,-0.31342 0.413676,-0.401022c0.112909,-0.086629 0.501278,-0.375715 0.475971,-0.512958c-0.025307,-0.138216 0.01168,-0.325101 -0.087602,-0.501278c-0.100256,-0.175204 -0.225818,-0.28714 -0.27546,-0.363062c-0.049641,-0.074948 0.213165,-0.087602 0.337754,-0.200511c0.125563,-0.112909 0,-0.213165 -0.062295,-0.200511c-0.062295,0.012654 -0.225818,0.050614 -0.288113,0.037961c-0.062295,-0.012654 -0.100256,-0.074948 -0.200511,-0.15087c-0.099282,-0.074948 0.025307,-0.186884 0.088575,-0.174231c0.062295,0.012654 0.223872,-0.125563 0.299793,-0.187858c0.074948,-0.062295 0.187858,-0.111936 0.149897,-0.049641c-0.036987,0.062295 -0.124589,0.288113 -0.025307,0.300767c0.101229,0.012654 0.338728,-0.187858 0.377662,-0.175204c0.036987,0.012654 0.099282,0.175204 0.062295,0.250152c-0.037961,0.074948 -0.037961,0.200511 0.012654,0.187858c0.049641,-0.012654 0.149897,-0.125563 0.175204,-0.087602c0.026281,0.037961 0.149897,0.112909 0.087602,0.250152c-0.061321,0.138216 -0.187858,0.187858 -0.037961,0.276433c0.149897,0.086629 0.200511,0.01168 0.31342,-0.050614c0.111936,-0.062295 0.187858,-0.337754 0.124589,-0.42633c-0.062295,-0.087602 -0.212191,-0.262806 -0.212191,-0.325101c0,-0.062295 0.250152,-0.062295 0.250152,-0.16255s0.087602,-0.175204 0.175204,-0.213165c0.088575,-0.037961 0.200511,-0.200511 0.237499,-0.149897c0.037961,0.050614 0.263779,0.112909 0.325101,0.037961c0.062295,-0.074948 0.389342,-0.350408 0.58888,-0.501278c0.200511,-0.149897 0.27546,-0.325101 0.327047,-0.501278c0.049641,-0.175204 0.124589,-0.288113 0.099282,-0.425356l0,0c0.074948,0.175204 0.087602,0.300767 0.074948,0.43801c-0.012654,0.138216 0,0.42633 0.025307,0.463317c0.024334,0.037961 0.125563,0.124589 0.186884,0.100256c0.062295,-0.024334 -0.024334,-0.27546 -0.024334,-0.325101c0,-0.050614 0.087602,-0.125563 0.138216,-0.138216c0.050614,-0.012654 0,-0.224845 -0.063268,-0.31342c-0.061321,-0.087602 -0.149897,-0.138216 -0.099282,-0.149897c0.049641,-0.012654 0.111936,-0.112909 0.074948,-0.138216c-0.037961,-0.024334 -0.013627,-0.112909 -0.100256,-0.087602c-0.063268,0.018494 -0.234579,-0.0146 -0.228738,0.092469c-0.036014,-0.107069 -0.112909,-0.178124 -0.210245,-0.167417c-0.112909,0.012654 -0.176177,0.074948 -0.288113,0.074948s-0.024334,-0.175204 -0.074948,-0.175204c-0.049641,0 -0.163524,0.16255 -0.224845,0.074948c-0.062295,-0.087602 0.175204,-0.200511 0.363062,-0.262806c0.186884,-0.062295 0.500305,-0.42633 0.626841,-0.438983c0.124589,-0.012654 0.43801,0.025307 0.713469,0.012654c0.27546,-0.012654 0.363062,-0.125563 0.450663,-0.062295s0.27546,0.138216 0.388369,0.125563c0.112909,-0.013627 0.062295,0 0.237499,-0.125563c0.175204,-0.125563 0.338728,-0.187858 0.42633,-0.288113c0.087602,-0.100256 0.326074,-0.175204 0.338728,-0.074948c0.013627,0.100256 -0.025307,0.200511 0.074948,0.200511s0.251126,-0.100256 0.375715,-0.149897c0.125563,-0.049641 0.224845,-0.112909 0.224845,-0.112909s-0.512958,0.350408 -0.637548,0.42633c-0.125563,0.074948 -0.42633,0.125563 -0.551892,0.27546c-0.124589,0.15087 -0.199538,0.200511 -0.186884,0.364035c0.013627,0.16255 0.224845,0.375715 0.124589,0.525612c-0.100256,0.149897 -0.137243,0.363062 -0.137243,0.363062s0.149897,-0.213165 0.363062,-0.350408s0.338728,-0.325101 0.413676,-0.401022s0.300767,-0.088575 0.300767,-0.176177s0.062295,-0.200511 0.101229,-0.300767c0.036987,-0.100256 -0.074948,-0.075922 0,-0.200511c0.073975,-0.125563 0.062295,-0.225818 0.43801,-0.225818s0.250152,0.025307 0.550919,0.012654c0.300767,-0.012654 0.412703,-0.16255 0.700816,-0.238472c0.288113,-0.074948 0.512958,-0.124589 0.601534,-0.086629c0.087602,0.036987 0.225818,0.01168 0.137243,-0.075922c-0.086629,-0.087602 -0.28714,-0.213165 -0.187858,-0.238472c0.101229,-0.025307 0.201485,-0.037961 0.239445,-0.138216c0.037961,-0.100256 -0.138216,-0.27546 -0.037961,-0.375715c0.101229,-0.100256 -0.074948,-0.224845 -0.201485,-0.250152c-0.124589,-0.024334 -0.613214,0.025307 -0.711523,-0.024334c-0.101229,-0.050614 -0.263779,-0.112909 -0.31342,-0.075922c-0.050614,0.037961 -0.163524,0.238472 -0.163524,0.238472s-0.087602,0.024334 -0.163524,-0.087602c-0.073975,-0.112909 -0.486678,-0.100256 -0.61224,-0.100256s-0.263779,0.024334 -0.401996,0.037961c-0.137243,0.012654 -0.213165,0.050614 -0.31342,-0.037961c-0.099282,-0.087602 -0.236525,-0.125563 -0.288113,-0.16255c-0.049641,-0.037961 -0.325101,-0.037961 -0.538265,-0.01168c-0.212191,0.024334 -0.42633,0.024334 -0.42633,0.024334s-0.101229,-0.037961 -0.250152,-0.125563c-0.149897,-0.087602 -0.300767,-0.149897 -0.351381,-0.149897c-0.049641,0 -0.437037,0.062295 -0.524638,0c-0.088575,-0.062295 -0.176177,-0.100256 -0.238472,-0.100256s-0.111936,-0.100256 -0.036987,-0.100256s0.425356,-0.100256 0.425356,-0.100256s-0.100256,-0.138216 -0.224845,-0.138216c-0.124589,0 -0.349435,-0.062295 -0.412703,-0.062295s-0.013627,0.062295 -0.138216,0.037961c-0.126536,-0.025307 -0.251126,-0.075922 -0.326074,-0.025307c-0.073975,0.049641 -0.251126,0.124589 -0.062295,0.175204c0.187858,0.050614 0.363062,0 0.413676,0.075922c0.050614,0.074948 0,0.111936 0,0.16255s-0.100256,0.187858 -0.16255,0.213165c-0.062295,0.024334 -0.13919,-0.037961 -0.262806,0.024334c-0.125563,0.062295 -0.438983,0.012654 -0.476944,0.050614c-0.036987,0.037961 -0.111936,-0.100256 -0.175204,-0.074948c-0.062295,0.024334 -0.225818,0.187858 -0.31342,0.175204c-0.086629,-0.012654 -0.200511,-0.100256 -0.200511,-0.200511s-0.036987,-0.225818 -0.074948,-0.251126c-0.036987,-0.024334 -0.31342,-0.037961 -0.413676,-0.024334c-0.100256,0.012654 -0.412703,0.036987 -0.46429,0.087602c-0.050614,0.050614 -0.187858,0.087602 -0.27546,0.087602s-0.16255,-0.087602 -0.350408,-0.112909c-0.186884,-0.025307 -0.60056,-0.037961 -0.651175,-0.025307s-0.212191,-0.024334 -0.15087,-0.074948c0.063268,-0.049641 0.250152,-0.213165 0.13919,-0.28714c-0.113883,-0.075922 -0.365008,-0.075922 -0.475971,-0.087602c-0.113883,-0.012654 -0.225818,-0.037961 -0.401996,-0.012654c-0.176177,0.025307 -0.213165,0.112909 -0.288113,0.037961c-0.074948,-0.074948 0.187858,0.037961 -0.074948,-0.074948c-0.262806,-0.112909 -0.388369,-0.100256 -0.46429,-0.062295c-0.074948,0.037961 0.012654,0.024334 -0.186884,0.100256c-0.200511,0.075922 -0.31342,0.112909 -0.364035,0.125563c-0.049641,0.01168 -0.362088,-0.063268 -0.400049,-0.088575c-0.036987,-0.024334 -0.176177,0.012654 -0.300767,0.062295s-0.217058,0.124589 -0.341648,0.100256c-0.125563,-0.026281 -0.326074,-0.026281 -0.451637,0.024334c-0.125563,0.049641 -0.213165,0.049641 -0.337754,0.137243c-0.126536,0.087602 -0.363062,0.138216 -0.363062,0.138216s-0.059375,-0.00292 -0.131403,-0.006813c1.972018,-1.713105 4.538756,-2.759462 7.350779,-2.759462c6.191513,0 11.22668,5.035167 11.22668,11.22668s-5.03614,11.225706 -11.22668,11.225706zm-1.082371,-7.410154c0,0 0.201485,-0.025307 0.201485,-0.113883c0,-0.086629 -0.201485,-0.199538 -0.274486,-0.099282c-0.075922,0.099282 -0.213165,0.199538 -0.201485,0.288113c0.018494,0.137243 0.274486,-0.074948 0.274486,-0.074948zm-0.012654,-2.81981c-0.176177,0.226792 -0.16255,0.177151 -0.288113,0.124589c-0.124589,-0.048668 -0.325101,0.112909 -0.288113,0.177151c0.037961,0.062295 0.31342,-0.013627 0.375715,0.099282c0.063268,0.112909 0.063268,0.125563 0.187858,0.101229c0.124589,-0.025307 0.250152,-0.199538 0.213165,-0.28714c-0.036987,-0.090522 -0.200511,-0.215112 -0.200511,-0.215112zm-0.036987,1.18944c-0.049641,0 -0.401022,0.062295 -0.438983,0.076895c-0.037961,0.012654 -0.262806,-0.024334 -0.262806,-0.024334c-0.087602,0.086629 -0.025307,0.174231 0.112909,0.161577s0.42633,-0.050614 0.488624,-0.050614c0.063268,0 0.149897,-0.163524 0.100256,-0.163524zm-0.538265,-3.481692c-0.184937,0.029201 -0.299793,0.42633 -0.15087,0.413676c0.15087,-0.01168 0.31342,-0.43801 0.15087,-0.413676zm0.43801,2.229957c-0.050614,-0.062295 -0.176177,-0.263779 -0.314394,-0.213165c-0.040881,0.016547 -0.148923,0.238472 -0.01168,0.238472c0.138216,0 0.376688,0.036987 0.326074,-0.025307zm0.112909,-0.149897c0.225818,-0.012654 0.16255,-0.238472 -0.012654,-0.250152c-0.049641,-0.003893 -0.213165,0.262806 0.012654,0.250152zm2.667967,2.066433c-0.187858,-0.037961 -0.237499,-0.099282 -0.43801,-0.199538c-0.201485,-0.100256 -0.652148,-0.100256 -0.663828,-0.037961c-0.013627,0.062295 0,0 -0.15087,-0.048668c-0.148923,-0.052561 -0.263779,0 -0.300767,-0.088575c-0.036987,-0.088575 -0.124589,-0.113883 -0.237499,-0.001947c-0.094415,0.094415 -0.138216,0.101229 0.075922,0.13919c0.212191,0.037961 0.27546,0.037961 0.186884,0.137243c-0.087602,0.101229 -0.149897,0.226792 -0.074948,0.237499c0.074948,0.0146 0.300767,-0.048668 0.325101,0c0.025307,0.052561 -0.049641,0.062295 0.201485,0.102202c0.251126,0.036014 0.300767,0.124589 0.349435,0.173257c0.049641,0.050614 0.200511,0.214138 0.101229,0.214138c-0.101229,0 -0.213165,0.124589 -0.138216,0.13919c0.074948,0.012654 0.300767,-0.037961 0.312447,0c0.013627,0.036014 0.13919,0.27546 0.263779,0.263779c0.125563,-0.012654 0.200511,-0.237499 0.262806,-0.30174c0.063268,-0.062295 0.31342,-0.101229 0.339701,0.01168c0.025307,0.112909 0.101229,0.226792 0.250152,0.302713c0.149897,0.073975 0.326074,0.149897 0.338728,0.086629c0.012654,-0.062295 -0.074948,-0.300767 -0.176177,-0.336781c-0.100256,-0.039908 -0.274486,-0.252099 -0.274486,-0.338728c0,-0.088575 -0.15087,-0.113883 -0.225818,-0.177151c-0.075922,-0.063268 -0.13919,-0.238472 -0.327047,-0.276433zm-9.294569,-1.854242c-0.081762,0.036014 -0.15087,0.463317 0,0.512958c0.149897,0.050614 0.237499,-0.199538 0.187858,-0.263779c-0.050614,-0.059375 -0.074948,-0.297847 -0.187858,-0.249179zm7.190175,1.064851c-0.114856,-0.048668 -0.326074,0.412703 -0.176177,0.450663c0.15087,0.038934 0.262806,-0.412703 0.176177,-0.450663zm0.251126,-4.29639c0.074948,0 0.175204,-0.049641 0.175204,-0.187858c0,-0.138216 0.175204,0 0.262806,-0.012654s0.137243,-0.100256 0.175204,-0.200511c0.004867,-0.012654 0.007787,-0.02044 0.00876,-0.026281c-0.00292,0.023361 -0.000973,0.090522 0.092469,0.113883c0.149897,0.036987 0.199538,-0.062295 0.199538,-0.100256s0.27546,-0.100256 0.327047,-0.138216c0.049641,-0.036987 0.251126,-0.100256 0.262806,-0.149897c0.012654,-0.049641 0,-0.338728 0.062295,-0.363062c0.062295,-0.025307 0.149897,-0.025307 0.050614,-0.200511c-0.101229,-0.176177 -0.101229,-0.338728 -0.225818,-0.263779c-0.092469,0.055481 -0.036987,0.276433 -0.111936,0.42633s-0.138216,0.288113 -0.187858,0.288113s-0.312447,0.100256 -0.388369,0.175204c-0.073975,0.074948 -0.43801,-0.062295 -0.487651,0c-0.050614,0.062295 -0.149897,0.137243 -0.213165,0.187858c-0.063268,0.049641 -0.238472,0.012654 -0.201485,0.16255c0.035041,0.151843 0.123616,0.289087 0.199538,0.289087zm1.715052,-1.603116c0.175204,-0.012654 0.338728,-0.062295 0.338728,-0.062295s0.263779,0.012654 0.225818,-0.112909c-0.038934,-0.124589 -0.31342,-0.137243 -0.365008,-0.124589c-0.049641,0.012654 -0.138216,-0.138216 -0.237499,-0.112909c-0.093442,0.022387 -0.124589,0.15087 -0.124589,0.187858c0,0.037961 -0.350408,0.111936 -0.238472,0.213165c0.112909,0.099282 0.226792,0.024334 0.401022,0.01168zm-3.444704,6.815434c0.101229,0.062295 0.288113,-0.213165 0.339701,-0.126536c0.049641,0.088575 -0.012654,0.126536 0.073975,0.239445c0.088575,0.110962 0.251126,0.099282 0.251126,0.099282s-0.012654,-0.300767 -0.15087,-0.376688c-0.138216,-0.074948 -0.225818,-0.161577 -0.062295,-0.137243c0.16255,0.025307 0.250152,-0.037961 0.213165,-0.110962c-0.037961,-0.075922 -0.27546,-0.037961 -0.351381,-0.025307s-0.187858,-0.050614 -0.187858,-0.050614c-0.074948,0.023361 -0.061321,0.086629 -0.087602,0.213165c-0.025307,0.123616 -0.138216,0.211218 -0.037961,0.27546zm6.827114,2.491789c-0.224845,-0.050614 -0.074948,0.037961 0,0.149897c0.074948,0.112909 0.225818,0.171311 0.251126,0.048668c0.010707,-0.061321 -0.026281,-0.14795 -0.251126,-0.198564zm0.964595,3.042709c-0.074948,0.062295 0,0.088575 -0.213165,0.214138c-0.214138,0.126536 -0.476944,0.263779 -0.526585,0.375715c-0.050614,0.112909 0.049641,0.176177 0.251126,0.186884c0.200511,0.012654 0.149897,0.051588 0.288113,-0.100256s0.263779,-0.237499 0.42633,-0.363062c0.163524,-0.124589 0.163524,-0.31342 0.163524,-0.31342s-0.176177,-0.173257 -0.187858,-0.137243c-0.021414,0.060348 -0.126536,0.075922 -0.201485,0.137243zm-3.320115,-3.042709c0.013627,-0.112909 -0.213165,-0.112909 -0.325101,-0.201485c-0.112909,-0.086629 -0.124589,-0.349435 -0.187858,-0.501278c-0.062295,-0.148923 -0.186884,-0.250152 -0.31342,-0.386422c-0.124589,-0.13919 -0.186884,-0.45261 -0.223872,-0.42633c-0.037961,0.024334 -0.149897,0.388369 -0.062295,0.501278c0.087602,0.112909 -0.037961,0.338728 -0.100256,0.489598c-0.063268,0.148923 -0.214138,-0.025307 -0.339701,-0.101229c-0.125563,-0.075922 -0.299793,-0.124589 -0.387395,-0.213165c-0.087602,-0.088575 0.15087,-0.326074 0.088575,-0.414649c-0.063268,-0.087602 -0.401022,-0.012654 -0.43801,-0.012654c-0.037961,0 -0.112909,-0.124589 -0.188831,-0.124589c-0.074948,0 -0.062295,0.251126 -0.062295,0.251126s-0.075922,-0.088575 -0.187858,-0.201485c-0.113883,-0.111936 0.01168,0.074948 -0.100256,0.187858c-0.113883,0.113883 -0.076895,0.075922 -0.125563,0.200511c-0.049641,0.125563 -0.16255,0.074948 -0.27546,-0.050614c-0.112909,-0.124589 -0.174231,-0.036014 -0.251126,0c-0.074948,0.037961 -0.137243,0.252099 -0.175204,0.300767c-0.037961,0.050614 -0.300767,0.113883 -0.364035,0.177151c-0.062295,0.060348 -0.087602,0.262806 -0.087602,0.31342c0,0.048668 -0.263779,0.022387 -0.351381,0.086629c-0.087602,0.062295 -0.223872,0.024334 -0.312447,0.024334c-0.087602,0 -0.388369,0.237499 -0.488624,0.299793c-0.100256,0.064241 -0.100256,0.29006 -0.049641,0.352355c0.049641,0.061321 0.149897,0.213165 0.087602,0.237499c-0.062295,0.025307 -0.101229,0.200511 0.049641,0.349435c0.149897,0.15087 0.100256,0.188831 0.111936,0.263779c0.013627,0.074948 0.075922,0.101229 0.176177,0.225818c0.099282,0.124589 -0.176177,0.224845 -0.213165,0.30174c-0.037961,0.073975 0.088575,0.186884 0.16255,0.250152c0.074948,0.061321 0.263779,0.025307 0.375715,-0.012654c0.113883,-0.037961 0.238472,-0.13919 0.312447,-0.15087c0.076895,-0.012654 0.42633,-0.025307 0.42633,-0.025307s0.125563,-0.186884 0.213165,-0.288113c0.086629,-0.099282 0.362088,-0.012654 0.362088,-0.012654s0.113883,-0.073975 0.414649,-0.137243c0.300767,-0.063268 0.174231,0.062295 0.288113,0.101229c0.111936,0.036014 0.262806,0.060348 0.349435,0.124589c0.087602,0.062295 0,0.212191 -0.01168,0.27546c-0.013627,0.062295 0.213165,0.036987 0.223872,-0.025307c0.013627,-0.062295 0.074948,-0.124589 0.201485,-0.199538c0.124589,-0.075922 0.024334,0.110962 0.073975,0.224845c0.050614,0.112909 0.125563,-0.152817 0.125563,-0.025307c0,0.037961 0.037961,0.075922 0.049641,0.112909c0.013627,0.037961 0.176177,0.050614 0.176177,0.175204c0,0.126536 0,0.201485 0.037961,0.224845c0.036987,0.025307 0.237499,0 0.326074,0.15087c0.086629,0.149897 0.149897,0.012654 0.199538,-0.050614c0.050614,-0.062295 0.224845,0.025307 0.27546,0.075922c0.050614,0.048668 0.187858,-0.101229 0.376688,-0.15087c0.186884,-0.049641 0.16255,-0.037961 0.213165,-0.111936c0.049641,-0.075922 0.087602,-0.27546 0.199538,-0.42633c0.111936,-0.148923 0.263779,-0.412703 0.263779,-0.614187c0,-0.200511 -0.013627,-0.663828 -0.15087,-0.875046c-0.137243,-0.213165 -0.399076,-0.427303 -0.387395,-0.539239zm-0.462344,3.068016c-0.063268,-0.012654 -0.201485,-0.060348 -0.201485,-0.060348c-0.138216,0.137243 0.138216,0.137243 0.101229,0.27546c-0.037961,0.137243 0.187858,0.086629 0.250152,0.062295c0.061321,-0.026281 0.214138,-0.314394 0.187858,-0.388369c-0.024334,-0.076895 -0.27546,0.123616 -0.337754,0.110962zm4.646798,-0.576226c-0.050614,0 -0.074948,0.062295 -0.186884,0c-0.113883,-0.061321 -0.088575,-0.036014 -0.163524,-0.16255c-0.074948,-0.123616 -0.088575,-0.288113 -0.213165,-0.223872c-0.049641,0.024334 0,0.163524 0.049641,0.212191c0.051588,0.050614 0.074948,0.224845 0.062295,0.27546c-0.01168,0.050614 -0.224845,0.112909 -0.125563,0.175204c0.101229,0.062295 0.289087,0 0.263779,0.075922c-0.024334,0.074948 -0.125563,0.174231 -0.012654,0.199538c0.111936,0.024334 0.149897,-0.086629 0.201485,-0.173257c0.049641,-0.090522 0.086629,-0.164497 0.174231,-0.215112c0.087602,-0.050614 0,-0.163524 -0.049641,-0.163524zm0.01168,-2.918119c0.163524,0.062295 0.451637,-0.224845 0.337754,-0.262806c-0.111936,-0.037961 -0.337754,0.262806 -0.337754,0.262806zm-8.655075,-1.240055c-0.028227,0.111936 0.187858,0.16255 0.200511,0.037961c0.01168,-0.125563 -0.175204,-0.138216 -0.200511,-0.037961zm0.337754,-3.344449c-0.062295,0.063268 -0.250152,0.187858 -0.27546,0.30174c-0.024334,0.111936 0.300767,-0.177151 0.388369,-0.288113c0.088575,-0.113883 0.262806,-0.050614 0.299793,-0.113883c0.038934,-0.061321 0.038934,-0.061321 0.038934,-0.061321s-0.138216,-0.024334 -0.250152,-0.061321c-0.113883,-0.037961 -0.251126,0.099282 -0.187858,-0.101229c0.062295,-0.200511 0.250152,-0.16255 0.213165,-0.31342c-0.037961,-0.149897 -0.163524,-0.187858 -0.201485,-0.187858c-0.087602,0 0.012654,0.137243 -0.112909,0.224845c-0.124589,0.087602 -0.263779,0.124589 -0.187858,0.27546c0.074948,0.149897 0.337754,0.261833 0.27546,0.325101zm-0.988929,3.193579c0.012654,-0.073975 -0.138216,-0.186884 -0.200511,-0.186884c-0.063268,0 -0.375715,-0.074948 -0.375715,-0.074948c-0.056455,0.022387 -0.131403,0.043801 -0.15379,0.074948c-0.006813,-0.010707 -0.021414,-0.023361 -0.047694,-0.037961c-0.138216,-0.073002 -0.300767,0 -0.351381,-0.099282c-0.048668,-0.101229 -0.123616,-0.101229 -0.174231,-0.037961c-0.091495,0.113883 0.024334,0.200511 0.061321,0.224845c0.036987,0.023361 0.176177,0.050614 0.300767,0.037961c0.077868,-0.007787 0.176177,-0.026281 0.204405,-0.057428c0.003893,0.013627 0.015574,0.026281 0.034067,0.042828c0.100256,0.089549 0.16255,0.126536 0.312447,0.112909c0.151843,-0.009734 0.377662,0.076895 0.390315,0.000973zm-0.363062,-0.738777c0.063268,0 0.187858,0 0.27546,0.025307c0.087602,0.024334 0.375715,0.048668 0.363062,-0.062295c-0.012654,-0.111936 -0.036987,-0.289087 0.086629,-0.400049c0.126536,-0.113883 0.250152,-0.175204 0.187858,-0.338728c-0.061321,-0.16255 -0.187858,-0.263779 -0.100256,-0.339701c0.087602,-0.073975 0.186884,-0.099282 0.186884,-0.161577c0,-0.063268 -0.211218,0.175204 -0.237499,-0.239445c-0.004867,-0.088575 -0.200511,0.024334 -0.213165,0.112909c-0.01168,0.088575 0.138216,0.16255 -0.100256,0.16255c-0.238472,0 -0.250152,0.188831 -0.300767,0.225818c-0.050614,0.037961 -0.100256,0.049641 -0.201485,0.073975c-0.099282,0.025307 -0.123616,0.126536 -0.148923,0.188831c-0.024334,0.061321 -0.200511,-0.112909 -0.250152,-0.062295c-0.049641,0.050614 -0.012654,0.288113 0.074948,0.487651c0.089549,0.201485 0.314394,0.327047 0.377662,0.327047zm-0.877966,-0.062295c0.063268,-0.074948 0.036987,-0.186884 -0.061321,-0.175204c-0.100256,0.012654 -0.187858,-0.163524 -0.350408,-0.27546c-0.163524,-0.110962 -0.288113,-0.188831 -0.438983,-0.350408c-0.149897,-0.16255 -0.337754,-0.263779 -0.43801,-0.349435c-0.101229,-0.088575 -0.250152,-0.126536 -0.31342,-0.112909c-0.154763,0.031147 0.224845,0.300767 0.263779,0.336781c0.037961,0.039908 0.376688,0.326074 0.376688,0.465264s0.224845,0.463317 0.288113,0.512958c0.062295,0.050614 0.374742,0.237499 0.425356,0.338728c0.050614,0.100256 0.16255,0.126536 0.16255,-0.012654c-0.000973,-0.138216 0.024334,-0.30174 0.085655,-0.377662zm-0.950968,-1.415259c0.062295,0.225818 0.187858,0.451637 0.237499,0.540212c0.050614,0.086629 0.263779,0.211218 0.338728,0.273513c0.074948,0.062295 0.186884,-0.023361 0.13919,-0.099282c-0.050614,-0.075922 -0.15087,-0.186884 -0.16255,-0.27546c-0.012654,-0.088575 -0.075922,-0.226792 -0.176177,-0.376688c-0.099282,-0.148923 -0.186884,-0.186884 -0.250152,-0.28714c-0.062295,-0.101229 -0.288113,-0.289087 -0.288113,-0.289087c-0.099282,0.012654 -0.099282,0.199538 -0.049641,0.263779c0.047694,0.061321 0.148923,0.025307 0.211218,0.250152z" fill-opacity="null" stroke-opacity="null" stroke-width="1.5" fill="#000"/>
 </g>
</svg>