<?xml version="1.0" encoding="iso-8859-1"?>
<!-- Generator: Adobe Illustrator 16.0.0, SVG Export Plug-In . SVG Version: 6.00 Build 0)  -->
<!DOCTYPE svg PUBLIC "-//W3C//DTD SVG 1.1//EN" "http://www.w3.org/Graphics/SVG/1.1/DTD/svg11.dtd">
<svg version="1.1" id="Layer_1" xmlns="http://www.w3.org/2000/svg" xmlns:xlink="http://www.w3.org/1999/xlink" x="0px" y="0px"
	 width="1234.9px" height="1234.9px" viewBox="0 0 1234.9 1234.9" style="enable-background:new 0 0 1234.9 1234.9;"
	 xml:space="preserve">
<g>
	<defs>
		<rect id="SVGID_1_" x="0.002" width="1234.898" height="1234.9"/>
	</defs>
	<clipPath id="SVGID_2_">
		<use xlink:href="#SVGID_1_"  style="overflow:visible;"/>
	</clipPath>
	<rect x="0.005" y="0.004" style="display:none;clip-path:url(#SVGID_2_);fill:#FFFFFF;" width="1234.896" height="1234.896"/>
	<g style="clip-path:url(#SVGID_2_);">
		<defs>
			<path id="SVGID_3_" d="M611.395,560.947c-2.98,2.039-5.791,4.33-8.38,6.84c-3.111,3-5.921,6.3-8.37,9.87
				c-7.091,10.3-11.25,22.75-11.25,36.13v92.009c0,15.461,12.539,28.001,28,28.001c15.47,0,28-12.54,28-28.001V603.787
				c0-8.57,3-16.441,8.001-22.62c4.999,6.179,8,14.05,8,22.62v102.009c0,15.341,12.339,27.8,27.64,27.99
				c0.119,0.011,0.239,0.011,0.36,0.011c0.119,0,0.239,0,0.358-0.011c15.311-0.19,27.641-12.649,27.641-27.99v-92.009
				c0-13.391-4.171-25.851-11.271-36.151c0,0,0-0.01-0.009-0.01c-2.23-3.24-4.74-6.259-7.521-9.039
				c-11.6-11.601-27.6-18.8-45.198-18.8C634.075,549.787,621.664,553.907,611.395,560.947"/>
		</defs>
		<clipPath id="SVGID_4_">
			<use xlink:href="#SVGID_3_"  style="overflow:visible;"/>
		</clipPath>
		
			<linearGradient id="SVGID_5_" gradientUnits="userSpaceOnUse" x1="-653.5049" y1="1234.9009" x2="-652.5049" y2="1234.9009" gradientTransform="matrix(48.6712 0 0 -48.6712 32406.7305 60745.9063)">
			<stop  offset="0" style="stop-color:#24AFB3"/>
			<stop  offset="0.3454" style="stop-color:#39C1C5"/>
			<stop  offset="0.6973" style="stop-color:#47CED1"/>
			<stop  offset="1" style="stop-color:#4CD2D5"/>
		</linearGradient>
		<rect x="583.395" y="549.787" style="clip-path:url(#SVGID_4_);fill:url(#SVGID_5_);" width="127.999" height="184.01"/>
	</g>
	<g style="clip-path:url(#SVGID_2_);">
		<defs>
			<rect id="SVGID_6_" x="0.002" y="0.004" width="1234.9" height="1234.896"/>
		</defs>
		<clipPath id="SVGID_7_">
			<use xlink:href="#SVGID_6_"  style="overflow:visible;"/>
		</clipPath>
		<g style="opacity:0.1;clip-path:url(#SVGID_7_);">
			<g>
				<defs>
					<rect id="SVGID_8_" x="509.185" y="546.217" width="135" height="191"/>
				</defs>
				<clipPath id="SVGID_9_">
					<use xlink:href="#SVGID_8_"  style="overflow:visible;"/>
				</clipPath>
				<g style="clip-path:url(#SVGID_9_);">
					<defs>
						<rect id="SVGID_10_" x="509.185" y="546.216" width="135" height="191"/>
					</defs>
					<clipPath id="SVGID_11_">
						<use xlink:href="#SVGID_10_"  style="overflow:visible;"/>
					</clipPath>
					<g style="clip-path:url(#SVGID_11_);">
						
							<image style="overflow:visible;" width="135" height="191" xlink:href="B6E8513.png"  transform="matrix(1 0 0 1 509.1846 546.2163)">
						</image>
					</g>
				</g>
			</g>
		</g>
	</g>
	<g style="clip-path:url(#SVGID_2_);">
		<defs>
			<path id="SVGID_12_" d="M530.194,568.587c-2.779,2.78-5.309,5.82-7.549,9.07c-7.091,10.3-11.25,22.75-11.25,36.13v92.009
				c0,15.461,12.539,28.001,28,28.001c15.47,0,27.999-12.54,27.999-28.001V603.787c0-8.57,3-16.441,8.001-22.62
				c4.999,6.179,8,14.05,8,22.62v102.009c0,15.461,12.539,28.001,28,28.001c15.47,0,28-12.54,28-28.001v-92.009
				c0-13.391-4.171-25.851-11.271-36.151c-2.449-3.559-5.25-6.859-8.35-9.849c-2.59-2.51-5.399-4.801-8.379-6.84
				c-10.271-7.04-22.68-11.16-36-11.16C557.794,549.787,541.794,556.986,530.194,568.587"/>
		</defs>
		<clipPath id="SVGID_13_">
			<use xlink:href="#SVGID_12_"  style="overflow:visible;"/>
		</clipPath>
		
			<linearGradient id="SVGID_14_" gradientUnits="userSpaceOnUse" x1="-653.5049" y1="1234.8999" x2="-652.5049" y2="1234.8999" gradientTransform="matrix(65.0692 0 0 -65.0692 43033.2188 80995.7109)">
			<stop  offset="0" style="stop-color:#24AFB3"/>
			<stop  offset="0.3454" style="stop-color:#39C1C5"/>
			<stop  offset="0.6973" style="stop-color:#47CED1"/>
			<stop  offset="1" style="stop-color:#4CD2D5"/>
		</linearGradient>
		<rect x="511.395" y="549.787" style="clip-path:url(#SVGID_13_);fill:url(#SVGID_14_);" width="128" height="184.01"/>
	</g>
	<g style="clip-path:url(#SVGID_2_);">
		<defs>
			<path id="SVGID_15_" d="M603.015,567.787c-11.161,0.12-21.101,5.31-27.62,13.38c4.999,6.179,8,14.05,8,22.62v102.009
				c0,15.461,12.539,28.001,28,28.001c15.47,0,28-12.54,28-28.001V603.787c0-9.941-4.03-18.941-10.539-25.45
				c-0.241-0.241-0.481-0.481-0.731-0.701c-4.589-4.36-10.33-7.509-16.72-8.959c-2.58-0.581-5.26-0.89-8.01-0.89H603.015z"/>
		</defs>
		<clipPath id="SVGID_16_">
			<use xlink:href="#SVGID_15_"  style="overflow:visible;"/>
		</clipPath>
		
			<linearGradient id="SVGID_17_" gradientUnits="userSpaceOnUse" x1="-653.5049" y1="1234.9009" x2="-652.5049" y2="1234.9009" gradientTransform="matrix(0 95.8761 95.8761 0 -117789.9922 63221.0078)">
			<stop  offset="0" style="stop-color:#299699"/>
			<stop  offset="0.057" style="stop-color:#299699"/>
			<stop  offset="0.342" style="stop-color:#2EAAAD"/>
			<stop  offset="0.6106" style="stop-color:#3BBCBF"/>
			<stop  offset="1" style="stop-color:#4CD2D5"/>
		</linearGradient>
		<rect x="575.395" y="567.787" style="clip-path:url(#SVGID_16_);fill:url(#SVGID_17_);" width="63.999" height="166.01"/>
	</g>
	<g style="clip-path:url(#SVGID_2_);">
		<defs>
			<path id="SVGID_18_" d="M647.396,581.167c4.999,6.179,8,14.05,8,22.62v102.009c0,15.341,12.339,27.8,27.64,27.99h0.719
				c15.311-0.19,27.641-12.649,27.641-27.99v-92.009c0-13.391-4.171-25.851-11.271-36.151c0,0,0-0.01-0.009-0.01
				c-6.441-6.1-15.142-9.839-24.721-9.839C664.084,567.787,653.994,573.007,647.396,581.167"/>
		</defs>
		<clipPath id="SVGID_19_">
			<use xlink:href="#SVGID_18_"  style="overflow:visible;"/>
		</clipPath>
		
			<linearGradient id="SVGID_20_" gradientUnits="userSpaceOnUse" x1="-653.5049" y1="1234.9009" x2="-652.5049" y2="1234.9009" gradientTransform="matrix(0 95.8761 95.8761 0 -117717.9922 63221.0078)">
			<stop  offset="0" style="stop-color:#299699"/>
			<stop  offset="0.057" style="stop-color:#299699"/>
			<stop  offset="0.342" style="stop-color:#2EAAAD"/>
			<stop  offset="0.6106" style="stop-color:#3BBCBF"/>
			<stop  offset="1" style="stop-color:#4CD2D5"/>
		</linearGradient>
		<rect x="647.396" y="567.787" style="clip-path:url(#SVGID_19_);fill:url(#SVGID_20_);" width="63.998" height="166"/>
	</g>
	<g style="clip-path:url(#SVGID_2_);">
		<defs>
			<path id="SVGID_21_" d="M388.345,674.448c-0.011-0.021-0.021-0.021-0.031-0.021c-0.31-0.15-0.62-0.301-0.92-0.45
				c-11.77-5.92-19.85-18.11-19.85-32.181c0-19.89,16.12-36,36-36c14.071,0,26.26,8.071,32.18,19.85
				c0.15,0.301,0.3,0.611,0.45,0.921c0,0.01,0,0.019,0.01,0.029c2.15,4.621,3.36,9.76,3.36,15.2c0,19.88-16.12,36-36,36
				C398.104,677.796,392.965,676.587,388.345,674.448 M311.544,521.797v120c0,35.541,20.16,66.381,49.67,81.689
				c4.83,2.521,9.91,4.611,15.2,6.24c8.58,2.65,17.69,4.071,27.13,4.071c1.51,0,3.02-0.04,4.51-0.111h0.031
				c0.34-0.02,0.689-0.04,1.029-0.06c0.55-0.03,1.101-0.069,1.651-0.12c45.059-3.49,81-39.43,84.489-84.49
				c0.05-0.55,0.09-1.101,0.12-1.649c0.02-0.341,0.04-0.69,0.06-1.029v-0.031c0.07-1.49,0.11-2.999,0.11-4.51
				c0-50.811-41.19-92-92-92c-12.77,0-24.94,2.6-36,7.309v-35.309c0-7.701-3.15-14.701-8.22-19.78
				c-3.28-3.281-7.37-5.751-11.93-7.091c-2.49-0.74-5.13-1.129-7.85-1.129C324.144,493.797,311.544,506.396,311.544,521.797"/>
		</defs>
		<clipPath id="SVGID_22_">
			<use xlink:href="#SVGID_21_"  style="overflow:visible;"/>
		</clipPath>
		
			<linearGradient id="SVGID_23_" gradientUnits="userSpaceOnUse" x1="-653.5049" y1="1234.8999" x2="-652.5049" y2="1234.8999" gradientTransform="matrix(25.6861 0 0 -25.6861 17097.1992 32333.6035)">
			<stop  offset="0" style="stop-color:#24AFB3"/>
			<stop  offset="0.3454" style="stop-color:#39C1C5"/>
			<stop  offset="0.6973" style="stop-color:#47CED1"/>
			<stop  offset="1" style="stop-color:#4CD2D5"/>
		</linearGradient>
		<rect x="311.544" y="493.797" style="clip-path:url(#SVGID_22_);fill:url(#SVGID_23_);" width="184" height="240"/>
	</g>
	<g style="clip-path:url(#SVGID_2_);">
		<defs>
			<rect id="SVGID_24_" x="0.002" y="0.004" width="1234.9" height="1234.896"/>
		</defs>
		<clipPath id="SVGID_25_">
			<use xlink:href="#SVGID_24_"  style="overflow:visible;"/>
		</clipPath>
		<path style="clip-path:url(#SVGID_25_);fill:#116466;" d="M438.004,629.787c-0.55-1.101-1.16-2.16-1.82-3.189
			c2.15,4.62,3.36,9.759,3.36,15.199c0,19.881-16.12,36-36,36c-5.439,0-10.58-1.21-15.2-3.35c1.03,0.65,2.09,1.26,3.19,1.811
			c5.11,3.109,11.11,4.899,17.54,4.899c18.68,0,33.83-15.149,33.83-33.83C442.904,640.896,441.114,634.887,438.004,629.787"/>
	</g>
	<g style="clip-path:url(#SVGID_2_);">
		<defs>
			<path id="SVGID_26_" d="M388.345,674.448c-0.011-0.021-0.021-0.021-0.031-0.021c-0.31-0.15-0.62-0.301-0.92-0.45
				c-11.77-5.92-19.85-18.11-19.85-32.181c0-19.89,16.12-36,36-36c14.071,0,26.26,8.071,32.18,19.85
				c0.15,0.301,0.3,0.611,0.45,0.921c0,0.01,0,0.019,0.01,0.029c2.15,4.621,3.36,9.76,3.36,15.2c0,19.88-16.12,36-36,36
				C398.104,677.796,392.965,676.587,388.345,674.448 M339.184,655.617c0,40.939,31.49,74.55,71.581,77.89
				c45.059-3.49,81-39.43,84.489-84.49c-3.34-40.089-36.94-71.58-77.889-71.58C374.184,577.436,339.184,612.437,339.184,655.617"/>
		</defs>
		<clipPath id="SVGID_27_">
			<use xlink:href="#SVGID_26_"  style="overflow:visible;"/>
		</clipPath>
		
			<linearGradient id="SVGID_28_" gradientUnits="userSpaceOnUse" x1="-653.5049" y1="1234.8999" x2="-652.5049" y2="1234.8999" gradientTransform="matrix(73.6667 123.3333 123.3333 -73.6667 -103789.3047 172152.1406)">
			<stop  offset="0" style="stop-color:#299699"/>
			<stop  offset="0.057" style="stop-color:#299699"/>
			<stop  offset="0.342" style="stop-color:#2EAAAD"/>
			<stop  offset="0.6106" style="stop-color:#3BBCBF"/>
			<stop  offset="1" style="stop-color:#4CD2D5"/>
		</linearGradient>
		<polygon style="clip-path:url(#SVGID_27_);fill:url(#SVGID_28_);" points="454.215,508.728 563.962,692.467 380.223,802.213 
			270.477,618.475 		"/>
	</g>
	<g style="clip-path:url(#SVGID_2_);">
		<defs>
			<path id="SVGID_29_" d="M805.354,674.887c-12.83-5.5-21.811-18.25-21.811-33.091c0-19.369,15.29-35.15,34.45-35.959
				c0.3-0.01,0.61-0.021,0.91-0.031c0.31-0.01,0.62-0.01,0.931-0.01c0.209,0,0.43,0,0.639,0.01c0.32,0.01,0.641,0.021,0.961,0.041
				c0.25,0.01,0.5,0.02,0.75,0.049c0.44,0.031,0.871,0.08,1.31,0.13c18.021,1.96,32.05,17.21,32.05,35.771c0,19.88-16.119,36-36,36
				C814.504,677.796,809.704,676.757,805.354,674.887 M863.765,502.017c-5.07,5.079-8.221,12.079-8.221,19.78v35.309
				c-11.06-4.709-23.229-7.309-36-7.309c-50.81,0-92,41.189-92,92c0,50.81,41.19,92.001,92,92.001c2.5,0,4.971-0.101,7.42-0.302
				c10.61-0.839,20.71-3.489,30.001-7.648c-3.109-5.19-4.9-11.26-4.9-17.73c0-5.41,1.251-10.54,3.479-15.11
				c5.66-11.579,17.601-19.579,31.391-19.579c6.13,0,12.029,1.589,17.21,4.58c4.079-9.511,6.601-19.851,7.239-30.681
				c0.061-1.091,0.101-2.181,0.131-3.28c0.021-0.75,0.03-1.5,0.03-2.25v-120c0-15.401-12.601-28-28.001-28
				C875.844,493.797,868.844,496.947,863.765,502.017"/>
		</defs>
		<clipPath id="SVGID_30_">
			<use xlink:href="#SVGID_29_"  style="overflow:visible;"/>
		</clipPath>
		
			<linearGradient id="SVGID_31_" gradientUnits="userSpaceOnUse" x1="-653.5044" y1="1234.8999" x2="-652.5044" y2="1234.8999" gradientTransform="matrix(184 0 0 -184 120972.3906 227835.3594)">
			<stop  offset="0" style="stop-color:#24AFB3"/>
			<stop  offset="0.3454" style="stop-color:#39C1C5"/>
			<stop  offset="0.6973" style="stop-color:#47CED1"/>
			<stop  offset="1" style="stop-color:#4CD2D5"/>
		</linearGradient>
		<rect x="727.544" y="493.797" style="clip-path:url(#SVGID_30_);fill:url(#SVGID_31_);" width="184.001" height="240"/>
	</g>
	<g style="clip-path:url(#SVGID_2_);">
		<defs>
			<path id="SVGID_32_" d="M805.354,674.887c-0.24-0.141-0.48-0.29-0.72-0.439c-0.01-0.021-0.02-0.021-0.03-0.021
				c-0.311-0.15-0.62-0.301-0.92-0.45c-11.771-5.92-19.85-18.11-19.85-32.181c0-19.27,15.139-35,34.159-35.959
				c0.3-0.01,0.61-0.021,0.91-0.031c0.31-0.01,0.62-0.01,0.931-0.01c0.209,0,0.43,0,0.639,0.01c0.32,0.01,0.641,0.021,0.961,0.041
				c0.25,0.01,0.5,0.02,0.75,0.049c0.44,0.031,0.871,0.08,1.31,0.13c18.021,1.96,32.05,17.21,32.05,35.771c0,19.88-16.119,36-36,36
				C814.504,677.796,809.704,676.757,805.354,674.887 M755.476,655.617c0,40.909,31.438,74.5,71.488,77.879
				c10.61-0.839,20.71-3.489,30.001-7.648c-3.109-5.19-4.9-11.26-4.9-17.73c0-5.41,1.251-10.54,3.479-15.11
				c5.66-11.579,17.601-19.579,31.391-19.579c6.13,0,12.029,1.589,17.21,4.58c4.079-9.511,6.601-19.851,7.239-30.681
				c-3.349-31.891-25.88-58.061-55.84-66.78c-6.95-2.03-14.29-3.111-21.89-3.111C790.474,577.436,755.476,612.437,755.476,655.617"
				/>
		</defs>
		<clipPath id="SVGID_33_">
			<use xlink:href="#SVGID_32_"  style="overflow:visible;"/>
		</clipPath>
		
			<linearGradient id="SVGID_34_" gradientUnits="userSpaceOnUse" x1="-653.5049" y1="1234.8979" x2="-652.5049" y2="1234.8979" gradientTransform="matrix(73.2702 122.6696 122.6696 -73.2702 -102812.3281 171228.7813)">
			<stop  offset="0" style="stop-color:#299699"/>
			<stop  offset="0.057" style="stop-color:#299699"/>
			<stop  offset="0.342" style="stop-color:#2EAAAD"/>
			<stop  offset="0.6106" style="stop-color:#3BBCBF"/>
			<stop  offset="1" style="stop-color:#4CD2D5"/>
		</linearGradient>
		<polygon style="clip-path:url(#SVGID_33_);fill:url(#SVGID_34_);" points="870.388,508.799 980.088,692.459 796.472,802.133 
			686.771,618.472 		"/>
	</g>
	<g style="clip-path:url(#SVGID_2_);">
		<defs>
			<rect id="SVGID_35_" x="0.002" y="0.004" width="1234.9" height="1234.896"/>
		</defs>
		<clipPath id="SVGID_36_">
			<use xlink:href="#SVGID_35_"  style="overflow:visible;"/>
		</clipPath>
		<path style="clip-path:url(#SVGID_36_);fill:#D86221;" d="M932.599,682.427c-7.876,0-14.897,3.481-19.577,9.075
			c1.655,2.626,3.653,6.336,6.449,11.244c1.203-3.909,6.393-8.904,13.128-8.904c7.876,0,14.459,6.394,14.459,14.271
			c0,7.33-5.783,13.979-14.281,14.25c-6.328,0.201-10.631-3.706-13.877-9.114c-8.95-13.926-7.919-17.394-13.813-23.287
			c-4.802-4.802-11.14-7.534-18.149-7.534c-14.258,0-25.875,11.45-25.875,25.686c0,14.211,11.662,25.684,25.875,25.684
			c7.705,0,14.554-3.368,19.234-8.733c-1.347-2.243-0.333-0.556-6.164-11.242c-2.169,5.021-7.191,8.561-13.07,8.561
			c-7.877,0-14.46-6.392-14.46-14.269c0-7.903,6.589-14.271,14.46-14.271c3.653,0,7.248,1.37,10.102,4.167
			c2.423,2.428,11.104,18.776,12.729,21.803v0.058c3.831,7.657,12.742,14.073,23.009,13.907
			c14.952-0.243,25.697-12.085,25.697-25.664C958.474,693.901,946.811,682.427,932.599,682.427"/>
	</g>
</g>
</svg>
